<svg xmlns:xlink="http://www.w3.org/1999/xlink" xmlns="http://www.w3.org/2000/svg" style="width: 28px; height: 28px; fill: var(--color-icon-low-emphasis);" width="28" height="28"><defs><symbol id="moreHoriz" xmlns="http://www.w3.org/2000/svg" viewBox="0 0 24 24" class="cz-color-0"><path fill-rule="evenodd" d="M16 12c0 1.1.9 2 2 2s2-.9 2-2-.9-2-2-2-2 .9-2 2zm-4-2c-1.1 0-2 .9-2 2s.9 2 2 2 2-.9 2-2-.9-2-2-2zm-8 2c0-1.1.9-2 2-2s2 .9 2 2-.9 2-2 2-2-.9-2-2z" clip-rule="evenodd" class="cz-color-0"></path></symbol></defs><g fill="#A1A3A8"><path fill-rule="evenodd" d="M16 12c0 1.1.9 2 2 2s2-.9 2-2-.9-2-2-2-2 .9-2 2zm-4-2c-1.1 0-2 .9-2 2s.9 2 2 2 2-.9 2-2-.9-2-2-2zm-8 2c0-1.1.9-2 2-2s2 .9 2 2-.9 2-2 2-2-.9-2-2z" clip-rule="evenodd" class="cz-color-0"></path></g></svg>